<svg width="40" height="40" viewBox="0 0 40 40" fill="none" xmlns="http://www.w3.org/2000/svg">
<path fill-rule="evenodd" clip-rule="evenodd" d="M19.9805 30.1896L31.9876 22.6531L19.9805 39.9999V30.1896ZM21.7659 31.1705V34.3052L25.611 28.7523L21.7659 31.1705Z" fill="#5A9DED"/>
<path fill-rule="evenodd" clip-rule="evenodd" d="M21.2083 14.5325L30.0722 19.5475L29.1979 21.0928L20.334 16.0779L21.2083 14.5325Z" fill="#D895D3"/>
<path fill-rule="evenodd" clip-rule="evenodd" d="M19.9805 0L31.947 20.5966L19.9805 28.144V0ZM21.7451 6.59139V24.9438L29.5606 20.0145L21.7451 6.59139Z" fill="#FF9C92"/>
<path fill-rule="evenodd" clip-rule="evenodd" d="M20.0208 30.1896L8.01367 22.6531L20.0208 39.9999V30.1896ZM18.2354 31.1705V34.3052L14.3904 28.7523L18.2354 31.1705Z" fill="#53D3E0"/>
<path fill-rule="evenodd" clip-rule="evenodd" d="M18.4186 14.6997L9.55469 19.7147L10.4291 21.26L19.293 16.2451L18.4186 14.6997Z" fill="#A6E275"/>
<path fill-rule="evenodd" clip-rule="evenodd" d="M19.9802 0L8.01367 20.5966L19.9802 28.144V0ZM18.2155 6.59139V24.9438L10.4001 20.0145L18.2155 6.59139Z" fill="#FFE94D"/>
</svg>
